HIERARCHY
ROOT Hips
{
  OFFSET 279.157 85.6768 304.565
  CHANNELS 6 Xposition Yposition Zposition Zrotation Xrotation Yrotation
  JOINT LeftUpLeg
  {
    OFFSET 8.64259 1.95398 -2.38835
    CHANNELS 3 Zrotation Xrotation Yrotation
    JOINT LeftLeg
    {
      OFFSET 43.7702 0 0
      CHANNELS 3 Zrotation Xrotation Yrotation
      JOINT LeftFoot
      {
        OFFSET 40.6238 0 0
        CHANNELS 3 Zrotation Xrotation Yrotation
        JOINT LeftToeBase
        {
          OFFSET 12.7242 0 0
          CHANNELS 3 Zrotation Xrotation Yrotation
          End Site
          {
            OFFSET 0 0 0
          }
        }
      }
    }
  }
  JOINT RightUpLeg
  {
    OFFSET -8.2249 1.95398 -2.59336
    CHANNELS 3 Zrotation Xrotation Yrotation
    JOINT RightLeg
    {
      OFFSET 43.5653 0 0
      CHANNELS 3 Zrotation Xrotation Yrotation
      JOINT RightFoot
      {
        OFFSET 40.6238 0 0
        CHANNELS 3 Zrotation Xrotation Yrotation
        JOINT RightToeBase
        {
          OFFSET 12.7242 0 0
          CHANNELS 3 Zrotation Xrotation Yrotation
          End Site
          {
            OFFSET 0 0 0
          }
        }
      }
    }
  }
  JOINT Spine
  {
    OFFSET 0.165834 0.87714 6.61349
    CHANNELS 3 Zrotation Xrotation Yrotation
    JOINT Spine1
    {
      OFFSET 7.38963 1.71661e-005 0
      CHANNELS 3 Zrotation Xrotation Yrotation
      JOINT Spine2
      {
        OFFSET 11.9445 1.14441e-005 0
        CHANNELS 3 Zrotation Xrotation Yrotation
        JOINT Spine3
        {
          OFFSET 14.7254 4.19617e-005 0
          CHANNELS 3 Zrotation Xrotation Yrotation
          JOINT Spine4
          {
            OFFSET 10.9679 0 0
            CHANNELS 3 Zrotation Xrotation Yrotation
            JOINT RightShoulder
            {
              OFFSET 2.46616 -1.6653 3.69651
              CHANNELS 3 Zrotation Xrotation Yrotation
              JOINT RightArm
              {
                OFFSET 13.0012 0 0
                CHANNELS 3 Zrotation Xrotation Yrotation
                JOINT RightForeArm
                {
                  OFFSET 28.7848 1.52588e-005 0
                  CHANNELS 3 Zrotation Xrotation Yrotation
                  JOINT RightHand
                  {
                    OFFSET 26.5688 1.52588e-005 0
                    CHANNELS 3 Zrotation Xrotation Yrotation
                    End Site
                    {
                      OFFSET 0 0 0
                    }
                  }
                }
              }
            }
            JOINT LeftShoulder
            {
              OFFSET 2.38034 -1.29275 -3.7523
              CHANNELS 3 Zrotation Xrotation Yrotation
              JOINT LeftArm
              {
                OFFSET 16.3182 6.10351e-005 0
                CHANNELS 3 Zrotation Xrotation Yrotation
                JOINT LeftForeArm
                {
                  OFFSET 27.0901 0 0
                  CHANNELS 3 Zrotation Xrotation Yrotation
                  JOINT LeftHand
                  {
                    OFFSET 24.5451 1.52588e-005 0
                    CHANNELS 3 Zrotation Xrotation Yrotation
                    End Site
                    {
                      OFFSET 0 0 0
                    }
                  }
                }
              }
            }
            JOINT Neck
            {
              OFFSET 5.0226 -0.0266342 0
              CHANNELS 3 Zrotation Xrotation Yrotation
              JOINT Head
              {
                OFFSET 6.69364 2.86102e-005 0
                CHANNELS 3 Zrotation Xrotation Yrotation
                End Site
                {
                  OFFSET 0 0 0
                }
              }
            }
          }
        }
      }
    }
  }
}
MOTION
Frames:	17
Frame Time:	0.0416667
0.409334 98.5077 -87.3694 -160.033 -80.0948 -162.621 -177.544 14.0682 85.3765 -7.29518 1.17535 -2.03001 61.4484 1.16966 -3.56102 16.9163 -9.58895 8.14027 172.385 -16.7664 88.6725 -22.4977 -15.5049 -1.66374 78.8822 -10.8579 -3.20894 29.2893 -0.774757 4.41667 1.13651 8.2431 -89.7095 10.385 2.39714 0.367652 -1.28381 2.411 0.261724 -23.8337 2.17578 1.07141 -3.82103 2.17578 1.0714 86.418 -30.1196 -113.721 30.7367 -6.03576 -15.6533 -1.48718 -27.4584 -20.7178 -26.8844 -0.534481 -9.44892 -91.1459 -59.4184 79.0337 -19.7883 6.81322 5.17239 1.27626 6.81524 -8.7342 -2.36136 -0.0927514 -5.37425 -0.579965 -2.78671 1.2252 -0.959648 -2.94933 -3.64586 
0.805306 98.5468 -79.8939 -145.486 -78.9459 -149.021 -176.651 14.6904 84.7362 -14.2404 2.86842 -2.63915 56.703 -2.42713 -2.92482 12.4715 -11.6774 6.17825 170.998 -18.7189 85.705 -24.9097 -18.9644 -3.2544 73.35 -8.05172 -3.84631 36.8061 -2.96172 4.84681 1.32276 8.08586 -89.5096 10.6953 2.86018 0.712676 -0.972637 2.88876 0.585998 -23.5268 2.5137 1.53977 -3.51418 2.5137 1.53977 86.067 -30.1432 -114.387 33.1132 -8.24641 -14.4181 0.783059 -26.481 -17.3656 -26.079 -0.495278 -9.41804 -90.532 -60.0316 79.9777 -20.4864 4.71872 5.93189 2.35462 5.40501 -9.12445 -3.50864 -0.0750743 -5.85326 -1.09242 -2.52817 0.156851 -1.78906 -2.52671 -3.32416 
1.11882 98.8707 -72.679 -143.169 -78.3545 -148.506 -175.483 14.0233 82.5996 -22.366 4.04617 -3.65586 61.8764 0.384815 -2.26717 8.04443 -13.6865 4.32202 170.19 -16.4009 82.7707 -33.7054 -20.0494 -5.08069 65.0939 -3.01278 -3.15984 41.5657 -4.38599 9.70688 1.22841 7.96296 -89.2393 10.933 2.79766 1.24857 -0.735389 2.8499 1.12416 -23.2833 2.2931 2.03188 -3.2706 2.2931 2.03186 86.4811 -29.9041 -113.702 37.0845 -10.7572 -12.3122 3.35318 -26.3072 -13.6723 -23.4228 -0.617351 -9.01695 -90.7626 -59.7922 79.6227 -19.9807 5.12198 4.75788 2.15028 5.085 -8.64926 -3.26832 -0.0781565 -5.93576 -2.14057 -2.46361 -0.700633 -3.12265 -2.32163 -3.62373 
1.3434 99.5182 -66.72 -140.928 -77.1722 -147.415 -175.311 9.75542 81.1317 -23.578 3.64272 -4.03122 65.4477 3.01734 -0.992439 9.3946 -13.0226 4.74876 171.426 -8.97872 81.0811 -48.9293 -20.9043 -6.24508 56.4985 2.07753 -0.517361 27.7837 -0.951418 9.90802 1.12876 8.01052 -89.1347 10.835 2.64714 1.47379 -0.833947 2.70943 1.35581 -23.3771 2.0819 2.20129 -3.3644 2.0819 2.20129 86.3993 -29.5946 -114.01 39.6631 -12.0491 -9.37051 4.93976 -24.731 -11.721 -22.9339 -0.513081 -9.21117 -91.3567 -60.5325 78.9703 -15.388 8.03544 -2.30253 -0.118961 10.0236 -4.99444 -2.93971 -0.0862926 -5.27825 -2.37873 -2.03093 -0.386163 -3.71133 -1.91421 -3.61071 
1.30897 99.7611 -61.7213 -139.537 -76.0724 -146.434 -175.025 6.02417 80.6192 -24.5175 3.98017 -4.6048 68.4915 4.98596 0.481371 10.8274 -12.168 4.90121 173.951 -0.521285 81.5135 -60.7834 -19.2089 -6.49431 54.7447 2.85512 0.833492 20.7135 1.21955 7.61538 0.906454 8.129 -89.1327 10.5994 2.20421 1.52512 -1.07047 2.26919 1.4266 -23.6077 1.64404 2.117 -3.59502 1.64405 2.117 86.6767 -29.6468 -113.444 40.9609 -12.3333 -6.96418 4.98453 -27.2701 -12.3954 -24.41 -0.854601 -7.82793 -91.4616 -59.6728 78.6605 -12.8361 7.69665 -9.40737 -0.265825 12.0316 -3.73597 -2.14128 -0.0909167 -5.58735 -3.31623 -0.978791 -0.0578282 -2.97006 -0.936494 -3.34143 
1.21687 100.219 -57.2891 -139.829 -75.387 -145.746 -174.958 2.08026 81.2212 -23.9662 3.45052 -4.26868 70.6417 6.35533 0.480325 12.0894 -11.4704 5.14764 175.993 6.31215 83.8143 -63.8004 -15.9391 -5.92238 62.5578 -1.78502 -0.836967 23.4595 0.425758 7.88695 0.581386 8.24717 -89.2499 10.3685 1.50173 1.35867 -1.30222 1.56006 1.29125 -23.8354 1.02403 1.74712 -3.82276 1.02403 1.74712 86.8809 -31.1256 -112.364 40.4018 -12.2886 -5.54811 4.16802 -24.4263 -13.4226 -23.5672 -0.654973 -8.12827 -91.6662 -57.01 77.8292 -9.91566 9.54698 -14.2623 -0.401613 8.39337 -6.56574 -1.03461 -0.113235 -6.19589 -4.374 0.256898 -1.69878 -2.46815 0.431184 -0.83283 
1.11814 100.653 -53.0506 -139.638 -75.7441 -143.64 -175.354 -0.925839 82.2495 -22.9204 3.35241 -2.8669 72.6628 7.25219 0.250341 12.8628 -11.2859 5.85615 177.204 11.813 86.9957 -57.1141 -11.5994 -4.72089 66.0885 -3.96214 -1.68961 23.9882 0.767153 5.07576 0.215435 8.24352 -89.5443 10.3838 0.637943 0.849582 -1.28731 0.674716 0.820674 -23.8207 0.353126 1.00202 -3.80808 0.353127 1.00202 87.1567 -31.473 -111.68 40.1882 -11.1629 -3.84103 3.89256 -25.858 -14.0581 -23.4261 -0.627472 -8.79131 -90.984 -55.2666 78.4157 -8.73451 8.76096 -17.4316 1.30674 6.87477 -11.9135 1.27573 -0.139351 -5.90335 -6.20499 1.42209 -1.81599 -2.15051 1.57152 0.649124 
0.617636 100.752 -48.8509 -141.475 -76.7845 -143.895 -175.142 -3.49044 83.638 -22.2438 4.25253 -1.92787 74.3236 8.20395 0.538494 14.5698 -10.5189 6.65104 177.543 14.7663 89.5264 -43.3575 -9.29165 -3.15398 66.2533 -4.1775 -1.77581 24.9857 0.770439 3.25658 -0.11915 8.24132 -89.7974 10.3913 -0.14449 0.415661 -1.27973 -0.126055 0.421606 -23.8146 -0.262738 0.353022 -3.80195 -0.26274 0.353013 87.3241 -31.7274 -111.249 40.2853 -10.6872 -1.61902 3.09676 -23.1612 -15.0547 -23.9637 -0.499946 -8.58015 -90.6085 -52.6242 78.3931 -9.7725 6.09361 -21.963 3.47015 8.70638 -13.1726 0.593519 -0.204441 -8.68324 -7.38252 2.14363 -1.99672 -2.30729 2.2839 1.55534 
-0.040231 100.368 -44.3833 -141.606 -78.3638 -143.318 -174.492 -5.1617 84.7349 -22.5689 5.92665 -1.70343 76.9526 9.50553 0.416838 14.8053 -10.4493 6.85109 177.565 15.4083 90.7475 -24.4211 -6.58204 -1.37535 61.9976 -2.31495 -0.340346 27.2706 -0.0619176 4.06634 -0.310795 8.19655 -89.9137 10.481 -0.57944 0.222721 -1.1898 -0.569068 0.247996 -23.726 -0.619587 0.038267 -3.71333 -0.619582 0.0382694 87.2848 -32.7691 -110.878 40.0864 -9.19991 -0.17934 3.7876 -23.8539 -14.7549 -24.1065 -0.506 -8.76034 -90.5067 -50.2248 78.0219 -10.961 5.0654 -26.0419 4.66124 7.94513 -15.0706 2.30722 -0.290921 -9.27652 -7.52401 2.27482 -3.78407 -2.98284 2.52477 3.20153 
-0.539248 99.6575 -39.4898 -151.348 -80.0595 -153.639 -174.214 -8.64768 85.0132 -21.6501 8.39983 -1.56012 79.3844 11.3776 0.194952 16.0147 -10.1158 7.97281 176.642 15.0097 90.2925 -9.66199 -5.32825 -0.256699 61.2433 -2.10921 -1.72858 26.3876 -0.0716485 5.91821 -0.601691 8.21846 -89.9107 10.4387 -1.15758 0.27941 -1.2318 -1.14415 0.330085 -23.771 -1.18803 -0.0814483 -3.75839 -1.18803 -0.0814614 86.9111 -34.0405 -111.038 39.7418 -8.09119 1.69254 2.65049 -24.0757 -15.1769 -22.8326 -0.582388 -8.57696 -90.9698 -50.2183 77.3308 -11.0616 4.14224 -29.5663 5.63227 8.32907 -16.5613 3.53721 -0.33675 -9.15175 -7.19866 2.21276 -4.39121 -3.48097 2.50126 3.57224 
-1.1482 98.6706 -33.9115 -168.923 -81.2361 -171.459 -173.413 -12.6273 86.2977 -20.961 11.3278 -1.29806 82.0439 13.7468 -0.111126 16.9906 -9.72824 8.62457 176.342 16.234 89.6803 -6.39602 -2.17655 -0.0264869 63.653 -1.80242 0.0307477 27.38 -0.368264 6.01816 -0.840908 8.2225 -89.9928 10.4309 -1.67177 0.161437 -1.23897 -1.66305 0.23487 -23.7825 -1.64298 -0.348608 -3.76988 -1.64298 -0.348607 87.4719 -34.4608 -109.835 40.1398 -7.81897 2.4906 3.952 -24.5172 -12.8969 -22.3206 -0.564646 -8.89643 -91.7625 -51.3851 76.4326 -10.9048 4.35264 -32.4708 5.75524 10.1888 -16.233 3.32541 -0.355534 -9.69132 -6.75299 2.09315 -4.08075 -3.78278 2.36439 3.50202 
-1.96519 97.8378 -27.6845 169.281 -81.35 166.778 -171.95 -16.7783 88.8416 -19.7711 14.7609 -0.900822 82.331 14.8526 -0.322671 20.8379 -7.65698 10.0011 176.165 15.2175 89.2612 -7.24238 -3.33603 -0.244506 59.504 0.440353 0.731459 25.7775 0.43277 3.81476 -1.07431 8.10401 -89.9988 10.6692 -2.13892 0.197343 -0.999982 -2.12816 0.291325 -23.5489 -2.0993 -0.454904 -3.53623 -2.0993 -0.454908 87.4264 -35.2279 -109.614 40.9098 -7.42517 3.66287 4.80034 -24.2212 -11.0945 -21.0359 -0.571115 -8.96289 -91.7843 -50.6586 76.2272 -12.7453 5.63394 -33.1356 5.34545 14.8006 -13.4571 1.99885 -0.250978 -8.59578 -6.73261 1.6343 -4.5425 -4.70481 1.91949 3.43303 
-2.75048 97.9932 -20.9604 153.864 -80.5628 152.368 -170.715 -18.8183 91.8501 -21.2838 17.1752 0.546002 77.2006 11.9728 0.24483 27.6005 -3.98939 13.1493 175.609 15.0148 89.6005 -11.6678 -4.45435 0.457786 55.2045 3.41084 0.450926 22.9994 1.15001 4.57036 -1.2011 7.95976 -90.1694 10.956 -2.46956 -0.1013 -0.712621 -2.47163 0.00755471 -23.2651 -2.32489 -0.839229 -3.2524 -2.32488 -0.839221 87.7153 -35.0072 -109.174 41.3839 -6.99757 4.35053 5.31101 -23.4701 -9.58961 -19.7755 -0.659045 -8.25594 -91.6836 -51.2565 76.5175 -14.6276 7.29998 -31.2481 3.66239 19.3467 -9.73249 0.618342 -0.171369 -7.53402 -6.1928 1.52636 -3.41546 -6.12706 1.72158 2.67495 
-3.44575 98.4422 -14.5657 148.778 -79.9736 148.736 -170.076 -16.6592 94.2556 -29.1252 19.3435 2.02249 69.4553 7.36169 2.43523 31.3676 -1.40176 13.0844 174.363 15.2132 90.6071 -19.6107 -6.12974 2.01927 57.9195 2.24774 -0.809521 17.9104 2.38192 5.98356 -1.1079 7.86968 -90.3652 11.1307 -2.37475 -0.495855 -0.538145 -2.39427 -0.390811 -23.087 -2.1159 -1.18692 -3.07439 -2.11591 -1.18693 88.2895 -34.3288 -108.378 41.6457 -7.01916 3.93939 5.44136 -23.9523 -9.26014 -20.6633 -0.683876 -8.16166 -91.2924 -50.6114 76.9432 -18.6883 9.01606 -25.8177 2.18239 19.2992 -7.25545 -0.547589 -0.141533 -7.73789 -5.48931 1.25665 -3.31371 -6.40413 1.44361 3.03825 
-4.21725 99.1595 -9.56765 149.498 -79.2906 151.206 -169.199 -9.13756 97.2635 -43.767 22.0021 2.74817 61.5108 1.76307 2.71469 15.9054 -10.0295 7.58385 174.139 12.0493 92.5655 -21.5071 -5.87295 2.86524 60.7567 0.204111 -1.61446 17.5788 2.45736 6.08087 -0.86097 7.91847 -90.5943 11.0282 -1.98927 -0.991658 -0.641551 -2.03098 -0.903128 -23.1822 -1.59929 -1.54373 -3.16959 -1.59929 -1.54372 87.8213 -33.1943 -109.696 40.5865 -7.38053 2.67385 4.68061 -21.4152 -10.9021 -20.8393 -0.451257 -8.77992 -90.8461 -51.0433 77.7009 -21.8893 9.7495 -19.4151 1.52505 16.0996 -6.70925 0.494285 -0.155533 -6.96731 -5.1736 0.824431 -2.46612 -5.34451 1.00531 1.71265 
-4.71358 99.853 -5.40386 137.745 -76.9321 139.765 -170.436 0.834425 98.0372 -56.0052 15.1519 3.44154 52.728 -4.67437 -0.954056 6.9035 -13.0409 1.54688 173.378 8.12636 92.6355 -20.8667 -3.47901 3.64456 62.8926 -1.1701 -1.87163 18.6581 2.15749 6.00464 -0.788818 7.98718 -90.5858 10.8911 -1.84134 -0.991976 -0.778865 -1.88322 -0.909963 -23.3181 -1.45812 -1.49955 -3.30549 -1.45811 -1.49955 88.1046 -33.1453 -109.184 38.8374 -7.78529 -0.200209 4.05373 -22.0918 -12.4562 -23.0879 -0.508482 -8.30876 -90.715 -50.7761 77.835 -24.2352 9.19031 -14.124 1.57009 15.2505 -6.38578 -0.0742676 -0.15865 -7.67372 -5.44805 -0.563467 -3.87996 -3.86381 -0.231785 1.69594 
-4.83341 100.409 -2.19987 130.631 -74.7519 131.973 -170.68 8.41052 97.214 -59.7978 8.85764 2.66158 57.8224 -1.36397 -0.93216 10.6986 -11.5604 3.40823 173.091 5.23676 92.2188 -20.264 -1.47282 3.60276 64.2588 -1.76647 -2.69445 19.9256 1.81536 5.86887 -0.524195 8.04178 -90.5341 10.784 -1.29019 -0.942826 -0.886584 -1.33044 -0.885131 -23.422 -0.947217 -1.28698 -3.40936 -0.947225 -1.28698 88.6419 -31.839 -108.687 37.8286 -6.85748 -2.21202 2.72955 -20.6984 -15.52 -25.9483 -0.297431 -8.7219 -91.2541 -52.4574 77.4201 -23.598 8.33947 -10.2674 1.79145 13.684 -6.92265 -1.21967 -0.111934 -6.83816 -5.39208 -2.76523 -3.6471 -3.10903 -2.40932 -0.533076 
